<?xml version="1.0" encoding="utf-8"?>
<!-- Generator: Adobe Illustrator 18.1.0, SVG Export Plug-In . SVG Version: 6.00 Build 0)  -->
<svg version="1.1" id="Layer_1" xmlns="http://www.w3.org/2000/svg" xmlns:xlink="http://www.w3.org/1999/xlink" x="0px" y="0px"
	 viewBox="0 0 1500 1500" enable-background="new 0 0 1500 1500" xml:space="preserve">
<g>
	<g>
		<g>
			<path fill-rule="evenodd" clip-rule="evenodd" fill="#333333" d="M500.3,1066.9c0-29.8,24.8-54.1,55.5-54.1h435.5
				c30.7,0,55.6,24.3,55.6,54.1c0,30-24.9,54.3-55.6,54.3c30.7,0,55.6,24.3,55.6,54.2c0,30-24.9,54.3-55.6,54.3
				c30.7,0,55.6,24.3,55.6,54.2c0,30-24.9,54.3-55.6,54.3H555.8c-30.6,0-55.5-24.3-55.5-54.3c0-29.9,24.8-54.2,55.5-54.2
				c-30.6,0-55.5-24.3-55.5-54.3c0-29.9,24.8-54.2,55.5-54.2C525.2,1121.2,500.3,1096.9,500.3,1066.9z"/>
		</g>
		<g>
			<path fill-rule="evenodd" clip-rule="evenodd" fill="#333333" d="M773.6,1447.5c-71.6,0-134.9-34.8-174.4-88.4h348.7
				C908.5,1412.8,845.2,1447.5,773.6,1447.5z"/>
		</g>
	</g>
	<g>
		<path fill="#333333" d="M478.3,950c-9.4,0-18.2-3.2-25.6-9.2c-8.5-6.9-13.7-16.6-14.8-27.5l-1-10.6c-0.6-6.6-4.9-12.3-11.2-14.9
			c-20.3-8.2-38.9-23.4-53.7-44.2c-3.4-4.7-8.9-7.5-14.7-7.5c-0.7,0-1.5,0.1-2.3,0.1l-22.3-20.4c-50.5-304.5,35.5-555.5,218.1-640.9
			c3.6-1.7,6.7-4.7,8.5-8.3c6.6-13.2,18.8-22.8,32.6-25.8c62.3-10.9,121.8-16.2,181.6-16.2c60.2,0,120.2,5.3,183.3,16.4
			c13,2.7,25,12.4,31.5,25.8c1.8,3.7,4.8,6.6,8.5,8.4c181.9,85.9,267.4,336.7,217.9,638.8l-9.4,10l-11.4,11.2
			c-0.6-0.1-1.3-0.1-1.9-0.1c-6.3,0-13.9,3.4-17.4,8.2c-14.8,20.8-33.4,36-53.6,44.2c-6.2,2.4-10.6,8.2-11.2,14.9l-1.1,10.5
			c-1.9,20.6-19.8,36.8-40.4,36.8c-1.4,0-2.7,0-4.1-0.2l-42.4-4.3c-10.9-1-20.6-6.3-27.6-14.7c-6.9-8.3-10.1-18.9-9-29.8l33.9-340
			c2.1-20.8,19.5-36.6,40.5-36.6c1.5,0,2.7,0,4.1,0.2l42.5,4.2c10.8,1.2,20.5,6.3,27.4,14.7c6.9,8.6,10.2,19.1,9,30l-1,10.5
			c-0.6,6.6,2.4,13.1,8.1,16.8c6.3,4.1,12.3,9.1,18,14.9c3.5,3.6,8.1,5.4,12.9,5.4c2.5,0,5.2-0.6,7.6-1.7
			c6.9-3.2,11.1-10.4,10.4-18.1c-16.5-177.9-92.3-313.8-208.4-372.5c-2.5-1.3-5.3-1.9-8.1-1.9c-3.1,0-6,0.8-8.6,2.3
			c-5.3,2.8-11.2,4.3-17.2,4.3c-2.6,0-5-0.3-7.5-0.8c-60.6-10.6-117.7-15.8-175.1-15.8c-57.2,0-114,5.1-173.6,15.7
			c-3.1,0.6-5.9,0.9-8.5,0.9c-6.3,0-12.5-1.5-17.8-4.5c-2.7-1.6-5.7-2.2-8.7-2.2c-2.7,0-5.6,0.6-8.1,1.9
			c-116.2,58.7-192.3,194.5-208.6,372.7c-0.8,7.7,3.4,14.9,10.4,18.1c2.4,1.1,4.9,1.7,7.5,1.7c4.8,0,9.5-1.9,13-5.5
			c5.4-5.6,11.5-10.6,18-14.9c5.6-3.7,8.7-10.2,8.1-17l-1.1-10.3c-1-10.8,2.3-21.4,9.2-30c6.9-8.4,16.6-13.5,27.3-14.6l42.6-4.2
			c1.4-0.2,2.7-0.2,4.1-0.2c21,0,38.4,15.7,40.4,36.6l33.9,340c1,10.9-2.1,21.5-9,30c-6.9,8.3-16.8,13.5-27.5,14.6l-42.5,4.3
			C481.1,950,479.7,950,478.3,950z"/>
	</g>
	<g>
		<g>
			<g>
				<path fill="#E43D26" d="M968.6,766.6h-5.3c-2,0-3.7-2.6-5.1-7.7c-1.4-5.3-2.2-11.6-2.2-19.2V659c0-7.6,0.7-14,2.2-19.4
					c1.4-5.4,3.1-8.1,5.1-8.1h5.3c2,0,3.7,2.7,5.1,8.1c1.5,5.4,2.1,11.9,2.1,19.4v80.6c0,7.6-0.6,13.9-2.1,19.2
					C972.2,764,970.6,766.6,968.6,766.6z"/>
			</g>
			<g>
				<path fill="#F29320" d="M940.4,791.1h-5.3c-2,0-3.8-2.7-5.2-7.9c-1.4-5.2-2.1-11.5-2.1-19V633.9c0-7.2,0.7-13.5,2.1-18.9
					c1.4-5.4,3.2-8.1,5.2-8.1h5.3c2,0,3.7,2.7,5.1,8.1c1.5,5.4,2,11.7,2,18.9v130.3c0,7.6-0.5,13.8-2,19
					C944.1,788.4,942.4,791.1,940.4,791.1z"/>
			</g>
			<g>
				<path fill="#E43D26" d="M912.2,822.4h-5.2c-2.1,0-3.8-2.6-5.2-7.7c-1.4-5.1-2.1-11.4-2.1-19V602.4c0-7.1,0.7-13.4,2.1-18.7
					c1.4-5.3,3.1-8.1,5.2-8.1h5.2c2.1,0,3.8,2.7,5.2,8.1c1.4,5.3,2,11.6,2,18.7v193.2c0,7.6-0.6,13.9-2,19
					C915.9,819.8,914.3,822.4,912.2,822.4z"/>
			</g>
			<g>
				<path fill="#F29320" d="M884,903.2h-5.3c-2.1,0-3.8-2.5-5.2-7.7c-1.4-5.2-2-11.6-2-19.2V521.7c0-7.6,0.6-14,2-19.2
					c1.5-5.2,3.1-7.8,5.2-7.8h5.3c2.1,0,3.7,2.6,5.2,7.8c1.3,5.1,2,11.6,2,19.2v354.5c0,7.6-0.7,14-2,19.2
					C887.7,900.6,886.1,903.2,884,903.2z"/>
			</g>
			<g>
				<path fill="#E43D26" d="M855.7,965h-5.3c-2,0-3.6-2.7-5.1-8.1c-1.4-5.5-2-11.6-2-18.9V460c0-7.1,0.6-13.4,2-18.8
					c1.5-5.4,3.1-8.1,5.1-8.1h5.3c2.1,0,3.8,2.7,5.2,8.1c1.4,5.4,2.1,11.7,2.1,18.8v478c0,7.3-0.7,13.4-2.1,18.9
					C859.6,962.2,857.8,965,855.7,965z"/>
			</g>
			<g>
				<path fill="#F29320" d="M827.6,965h-5.3c-2,0-3.8-2.7-5.1-8.1c-1.5-5.5-2.1-11.6-2.1-18.9V460c0-7.1,0.6-13.4,2.1-18.8
					c1.4-5.4,3.1-8.1,5.1-8.1h5.3c2,0,3.8,2.7,5.1,8.1c1.5,5.4,2.2,11.7,2.2,18.8v478c0,7.3-0.7,13.4-2.2,18.9
					C831.4,962.2,829.6,965,827.6,965z"/>
			</g>
			<g>
				<path fill="#E43D26" d="M799.4,766.6h-5.3c-2,0-3.8-2.6-5.1-7.7c-1.5-5.3-2.1-11.6-2.1-19.2V659c0-7.6,0.6-14,2.1-19.4
					c1.4-5.4,3.1-8.1,5.1-8.1h5.3c2,0,3.8,2.7,5.1,8.1c1.5,5.4,2.2,11.9,2.2,19.4v80.6c0,7.6-0.7,13.9-2.2,19.2
					C803.1,764,801.4,766.6,799.4,766.6z"/>
			</g>
		</g>
		<g>
			<g>
				<path fill="#E43D26" d="M580.1,758.9c-1.4-5.3-2-11.6-2-19.2V659c0-7.6,0.6-14,2-19.4c1.5-5.4,3.1-8.1,5.1-8.1h5.3
					c2.1,0,3.9,2.7,5.2,8.1c1.4,5.4,2.1,11.9,2.1,19.4v80.6c0,7.6-0.7,13.9-2.1,19.2c-1.4,5.1-3.1,7.7-5.2,7.7h-5.3
					C583.2,766.6,581.6,764,580.1,758.9z"/>
			</g>
			<g>
				<path fill="#F29320" d="M608.3,783.2c-1.4-5.2-2-11.5-2-19V633.9c0-7.2,0.6-13.5,2-18.9c1.5-5.4,3.1-8.1,5.2-8.1h5.3
					c2,0,3.8,2.7,5.2,8.1c1.3,5.4,2,11.7,2,18.9v130.3c0,7.6-0.7,13.8-2,19c-1.5,5.2-3.2,7.9-5.2,7.9h-5.3
					C611.4,791.1,609.7,788.4,608.3,783.2z"/>
			</g>
			<g>
				<path fill="#E43D26" d="M636.5,814.6c-1.4-5.1-2.1-11.4-2.1-19V602.4c0-7.1,0.7-13.4,2.1-18.7c1.4-5.3,3.1-8.1,5.2-8.1h5.2
					c2.1,0,3.8,2.7,5.2,8.1c1.4,5.3,2,11.6,2,18.7v193.2c0,7.6-0.6,13.9-2,19c-1.5,5.2-3.1,7.7-5.2,7.7h-5.2
					C639.6,822.4,637.9,819.8,636.5,814.6z"/>
			</g>
			<g>
				<path fill="#F29320" d="M664.7,895.5c-1.4-5.2-2.1-11.6-2.1-19.2V521.7c0-7.6,0.7-14,2.1-19.2c1.4-5.2,3.1-7.8,5.2-7.8h5.3
					c2,0,3.7,2.6,5.1,7.8c1.5,5.1,2,11.6,2,19.2v354.5c0,7.6-0.6,14-2,19.2c-1.5,5.2-3.1,7.7-5.1,7.7h-5.3
					C667.8,903.2,666.1,900.6,664.7,895.5z"/>
			</g>
			<g>
				<path fill="#E43D26" d="M692.9,956.9c-1.5-5.5-2.2-11.6-2.2-18.9V460c0-7.1,0.7-13.4,2.2-18.8c1.4-5.4,3.1-8.1,5.1-8.1h5.3
					c2,0,3.7,2.7,5.1,8.1c1.5,5.4,2.1,11.7,2.1,18.8v478c0,7.3-0.7,13.4-2.1,18.9c-1.5,5.3-3.1,8.1-5.1,8.1h-5.3
					C696,965,694.3,962.2,692.9,956.9z"/>
			</g>
			<g>
				<path fill="#F29320" d="M721.1,956.9c-1.4-5.5-2.1-11.6-2.1-18.9V460c0-7.1,0.7-13.4,2.1-18.8c1.4-5.4,3.1-8.1,5.1-8.1h5.3
					c2,0,3.9,2.7,5.1,8.1c1.5,5.4,2.2,11.7,2.2,18.8v478c0,7.3-0.7,13.4-2.2,18.9c-1.3,5.3-3.1,8.1-5.1,8.1h-5.3
					C724.2,965,722.5,962.2,721.1,956.9z"/>
			</g>
			<g>
				<path fill="#E43D26" d="M749.3,758.9c-1.5-5.3-2.1-11.6-2.1-19.2V659c0-7.6,0.7-14,2.1-19.4c1.5-5.4,3.1-8.1,5.1-8.1h5.3
					c2,0,3.8,2.7,5.1,8.1c1.5,5.4,2.2,11.9,2.2,19.4v80.6c0,7.6-0.7,13.9-2.2,19.2c-1.3,5.1-3.1,7.7-5.1,7.7h-5.3
					C752.4,766.6,750.7,764,749.3,758.9z"/>
			</g>
		</g>
	</g>
</g>
</svg>
